{
    "asset" : {
        "generator" : "Khronos Blender glTF 2.0 I/O",
        "version" : "2.0"
    },
    "scene" : 0,
    "scenes" : [
        {
            "name" : "Scene",
            "nodes" : [
                0,
                1
            ]
        }
    ],
    "nodes" : [
        {
            "mesh" : 0,
            "name" : "Cylinder",
            "rotation" : [
                0,
                0,
                -0.7071068286895752,
                0.7071068286895752
            ]
        },
        {
            "name" : "Camera",
            "rotation" : [
                0.5473734140396118,
                -0.3516610860824585,
                0.7114262580871582,
                0.26568683981895447
            ],
            "translation" : [
                0.013128255493938923,
                -0.0006733874906785786,
                -0.008524090982973576
            ]
        }
    ],
    "materials" : [
        {
            "name" : "Material.001",
            "pbrMetallicRoughness" : {
                "baseColorFactor" : [
                    0.08001160621643066,
                    0.08001160621643066,
                    0.08001160621643066,
                    1
                ],
                "metallicFactor" : 0,
                "roughnessFactor" : 0.5
            }
        },
        {
            "emissiveFactor" : [
                1,
                0.7913330793380737,
                0.03651271015405655
            ],
            "name" : "Material.002",
            "pbrMetallicRoughness" : {}
        },
        {
            "name" : "Material.003",
            "pbrMetallicRoughness" : {
                "baseColorFactor" : [
                    1,
                    1,
                    1,
                    1
                ],
                "metallicFactor" : 0,
                "roughnessFactor" : 0.5
            }
        },
        {
            "emissiveFactor" : [
                1,
                1,
                1
            ],
            "name" : "Material.004",
            "pbrMetallicRoughness" : {}
        }
    ],
    "meshes" : [
        {
            "name" : "Cylinder",
            "primitives" : [
                {
                    "attributes" : {
                        "POSITION" : 0,
                        "NORMAL" : 1,
                        "TEXCOORD_0" : 2
                    },
                    "indices" : 3,
                    "material" : 0
                },
                {
                    "attributes" : {
                        "POSITION" : 4,
                        "NORMAL" : 5,
                        "TEXCOORD_0" : 6
                    },
                    "indices" : 7,
                    "material" : 1
                },
                {
                    "attributes" : {
                        "POSITION" : 8,
                        "NORMAL" : 9,
                        "TEXCOORD_0" : 10
                    },
                    "indices" : 11,
                    "material" : 2
                },
                {
                    "attributes" : {
                        "POSITION" : 12,
                        "NORMAL" : 13,
                        "TEXCOORD_0" : 14
                    },
                    "indices" : 15,
                    "material" : 3
                }
            ]
        }
    ],
    "accessors" : [
        {
            "bufferView" : 0,
            "componentType" : 5126,
            "count" : 2152,
            "max" : [
                1.8739004135131836,
                0.6917944550514221,
                1.1803258657455444
            ],
            "min" : [
                0.04815366864204407,
                -0.6931461691856384,
                -1.1803258657455444
            ],
            "type" : "VEC3"
        },
        {
            "bufferView" : 1,
            "componentType" : 5126,
            "count" : 2152,
            "type" : "VEC3"
        },
        {
            "bufferView" : 2,
            "componentType" : 5126,
            "count" : 2152,
            "type" : "VEC2"
        },
        {
            "bufferView" : 3,
            "componentType" : 5123,
            "count" : 3360,
            "type" : "SCALAR"
        },
        {
            "bufferView" : 4,
            "componentType" : 5126,
            "count" : 192,
            "max" : [
                1.8541699647903442,
                0.6054866909980774,
                1.1218000650405884
            ],
            "min" : [
                0.6560778617858887,
                -0.6068384051322937,
                -1.1218000650405884
            ],
            "type" : "VEC3"
        },
        {
            "bufferView" : 5,
            "componentType" : 5126,
            "count" : 192,
            "type" : "VEC3"
        },
        {
            "bufferView" : 6,
            "componentType" : 5126,
            "count" : 192,
            "type" : "VEC2"
        },
        {
            "bufferView" : 7,
            "componentType" : 5123,
            "count" : 288,
            "type" : "SCALAR"
        },
        {
            "bufferView" : 8,
            "componentType" : 5126,
            "count" : 916,
            "max" : [
                1.8541699647903442,
                0.6054866909980774,
                1.0993486642837524
            ],
            "min" : [
                -1,
                -0.6068384051322937,
                -1.0993486642837524
            ],
            "type" : "VEC3"
        },
        {
            "bufferView" : 9,
            "componentType" : 5126,
            "count" : 916,
            "type" : "VEC3"
        },
        {
            "bufferView" : 10,
            "componentType" : 5126,
            "count" : 916,
            "type" : "VEC2"
        },
        {
            "bufferView" : 11,
            "componentType" : 5123,
            "count" : 1416,
            "type" : "SCALAR"
        },
        {
            "bufferView" : 12,
            "componentType" : 5126,
            "count" : 48,
            "max" : [
                1.6354740858078003,
                0.3657965064048767,
                1.1803258657455444
            ],
            "min" : [
                0.9111342430114746,
                -0.3671482801437378,
                -1.1803258657455444
            ],
            "type" : "VEC3"
        },
        {
            "bufferView" : 13,
            "componentType" : 5126,
            "count" : 48,
            "type" : "VEC3"
        },
        {
            "bufferView" : 14,
            "componentType" : 5126,
            "count" : 48,
            "type" : "VEC2"
        },
        {
            "bufferView" : 15,
            "componentType" : 5123,
            "count" : 132,
            "type" : "SCALAR"
        }
    ],
    "bufferViews" : [
        {
            "buffer" : 0,
            "byteLength" : 25824,
            "byteOffset" : 0
        },
        {
            "buffer" : 0,
            "byteLength" : 25824,
            "byteOffset" : 25824
        },
        {
            "buffer" : 0,
            "byteLength" : 17216,
            "byteOffset" : 51648
        },
        {
            "buffer" : 0,
            "byteLength" : 6720,
            "byteOffset" : 68864
        },
        {
            "buffer" : 0,
            "byteLength" : 2304,
            "byteOffset" : 75584
        },
        {
            "buffer" : 0,
            "byteLength" : 2304,
            "byteOffset" : 77888
        },
        {
            "buffer" : 0,
            "byteLength" : 1536,
            "byteOffset" : 80192
        },
        {
            "buffer" : 0,
            "byteLength" : 576,
            "byteOffset" : 81728
        },
        {
            "buffer" : 0,
            "byteLength" : 10992,
            "byteOffset" : 82304
        },
        {
            "buffer" : 0,
            "byteLength" : 10992,
            "byteOffset" : 93296
        },
        {
            "buffer" : 0,
            "byteLength" : 7328,
            "byteOffset" : 104288
        },
        {
            "buffer" : 0,
            "byteLength" : 2832,
            "byteOffset" : 111616
        },
        {
            "buffer" : 0,
            "byteLength" : 576,
            "byteOffset" : 114448
        },
        {
            "buffer" : 0,
            "byteLength" : 576,
            "byteOffset" : 115024
        },
        {
            "buffer" : 0,
            "byteLength" : 384,
            "byteOffset" : 115600
        },
        {
            "buffer" : 0,
            "byteLength" : 264,
            "byteOffset" : 115984
        }
    ],
    "buffers" : [
        {
            "byteLength" : 116248,
            "uri" : "data:application/octet-stream;base64,"
        }
    ]
}
